<svg xmlns="http://www.w3.org/2000/svg" viewBox="0 0 59.33 59.82"><defs><style>.cls-1{fill:none;stroke:#231f20;stroke-miterlimit:10;}.cls-2{fill:#231f20;}</style></defs><title>Asset 1</title><g id="Layer_2" data-name="Layer 2"><g id="Layer_1-2" data-name="Layer 1"><polygon class="cls-1" points="20.48 1.17 20.48 37.03 58.09 37.03 20.48 1.17"/><path class="cls-2" d="M4,56.42a.94.94,0,0,1-.65-.25A.89.89,0,0,1,3,55.51a1,1,0,0,1,.24-.72L20,35.83a.92.92,0,0,1,.72-.34,1,1,0,0,1,.65.25,1,1,0,0,1,.09,1.38l-16.77,19A1,1,0,0,1,4,56.42Z"/><path class="cls-2" d="M4.09,59.82a4,4,0,0,1-2.68-1A4.06,4.06,0,0,1,0,56a4.11,4.11,0,0,1,1-3L18,33.47a4.09,4.09,0,0,1,3.1-1.42,4,4,0,0,1,2.68,1,4.11,4.11,0,0,1,.41,5.77l-17,19.57A4.13,4.13,0,0,1,4.09,59.82ZM21.1,34a2.08,2.08,0,0,0-1.61.74l-17,19.58A2.18,2.18,0,0,0,2,55.88a2.15,2.15,0,0,0,.73,1.44,2.1,2.1,0,0,0,1.4.54,2.18,2.18,0,0,0,1.62-.73l17-19.57A2.14,2.14,0,0,0,21.1,34Z"/><circle class="cls-1" cx="20.54" cy="36.95" r="16.23"/></g></g></svg>