<?xml version="1.0" standalone="no"?>
<!DOCTYPE svg PUBLIC "-//W3C//DTD SVG 20010904//EN"
 "http://www.w3.org/TR/2001/REC-SVG-20010904/DTD/svg10.dtd">
<svg version="1.0" xmlns="http://www.w3.org/2000/svg"
 width="960.000000pt" height="960.000000pt" viewBox="0 0 960.000000 960.000000"
 preserveAspectRatio="xMidYMid meet">
<metadata>
Created by potrace 1.11, written by Peter Selinger 2001-2013
</metadata>
<g transform="translate(0.000000,960.000000) scale(0.100000,-0.100000)"
fill="#000000" stroke="none">
<path d="M3248 7978 l-3 -1623 -25 -1 c-14 -1 -59 -5 -100 -9 -41 -4 -95 -9
-120 -10 -25 -2 -45 -4 -45 -5 0 -2 -36 -10 -70 -15 -64 -9 -92 -14 -156 -29
-73 -17 -236 -63 -259 -73 -8 -3 -17 -7 -20 -8 -3 -1 -18 -7 -33 -13 -16 -7
-34 -12 -41 -12 -6 0 -16 -4 -22 -8 -5 -5 -27 -16 -49 -24 -81 -32 -243 -113
-340 -171 -283 -169 -503 -360 -721 -627 -16 -19 -32 -36 -36 -38 -5 -2 -8
-10 -8 -17 0 -7 -4 -15 -9 -17 -20 -6 -179 -259 -236 -374 -33 -65 -62 -121
-65 -124 -3 -3 -6 -11 -8 -18 -1 -7 -11 -32 -21 -55 -50 -110 -119 -327 -147
-460 -45 -216 -58 -344 -58 -577 0 -191 10 -326 33 -444 6 -28 12 -64 14 -81
3 -16 10 -50 17 -75 7 -25 14 -52 15 -61 2 -9 8 -33 13 -52 6 -20 7 -38 4 -41
-3 -3 0 -6 6 -6 7 0 12 -8 12 -17 0 -15 30 -111 50 -158 4 -11 25 -60 45 -110
57 -137 177 -366 196 -373 5 -2 9 -8 9 -13 0 -13 81 -133 92 -137 4 -2 8 -10
8 -17 0 -7 3 -15 8 -17 4 -1 43 -48 88 -103 69 -85 269 -295 281 -295 2 0 14
-9 26 -21 50 -47 167 -139 242 -189 44 -29 82 -57 83 -62 2 -4 8 -8 14 -8 5 0
42 -19 81 -43 76 -46 260 -137 337 -166 25 -10 54 -21 65 -26 11 -4 25 -9 30
-11 6 -1 32 -10 59 -19 26 -9 56 -18 65 -21 9 -2 75 -19 146 -38 72 -19 146
-35 165 -37 19 -2 39 -5 45 -8 5 -2 21 -6 35 -7 14 -2 48 -6 75 -9 189 -22
478 -23 640 -1 17 2 54 7 84 10 30 4 57 9 60 10 3 2 27 7 54 10 26 4 58 11 72
16 14 5 25 8 25 6 0 -2 27 4 60 14 33 10 60 16 60 13 0 -3 6 -1 13 5 12 10 76
27 90 24 4 -1 7 3 7 9 0 5 4 8 8 5 5 -3 20 1 35 9 15 8 27 12 27 10 0 -2 17 3
38 12 45 19 75 30 84 32 4 1 44 20 88 41 44 22 82 40 84 40 13 0 288 162 306
180 3 3 28 21 55 40 57 39 176 133 216 170 185 173 292 291 395 436 60 84 124
184 124 193 0 6 3 11 8 11 4 0 12 10 18 23 23 49 59 112 67 115 4 2 7 9 7 14
0 6 16 45 36 87 20 42 44 96 53 121 10 25 22 54 26 65 5 11 9 22 9 25 1 3 9
25 18 50 21 60 43 131 63 210 17 67 20 80 31 140 4 19 8 44 11 55 9 49 15 92
17 121 2 16 5 34 7 40 3 5 5 33 4 62 0 28 2 52 5 52 3 0 5 21 5 47 l0 48 1762
0 c969 1 1765 3 1768 6 3 4 -20 30 -51 60 -107 104 -182 175 -334 319 -84 80
-181 172 -215 205 -34 33 -129 123 -210 200 -81 77 -169 160 -194 185 -26 25
-121 115 -210 200 -90 85 -198 189 -241 230 -43 41 -135 129 -205 195 -70 66
-158 149 -195 185 -37 36 -133 128 -215 205 -81 77 -175 167 -210 200 -34 33
-127 121 -205 195 -78 74 -170 162 -204 195 -59 56 -321 307 -447 426 -196
186 -348 331 -393 374 -29 28 -128 122 -220 210 -93 88 -199 189 -236 225 -37
36 -137 130 -220 210 -84 80 -179 170 -211 200 -31 30 -121 116 -200 190 -78
74 -175 167 -215 205 -40 39 -141 135 -225 215 -84 80 -171 163 -194 185 -22
22 -104 99 -181 172 -76 73 -170 162 -209 199 -38 36 -144 137 -234 223 -206
196 -249 237 -350 334 l-81 78 -2 -1623z m292 1122 c37 -36 130 -123 205 -195
76 -71 159 -150 184 -175 26 -25 123 -117 216 -205 92 -88 200 -191 240 -230
40 -38 137 -131 216 -205 78 -74 164 -155 189 -180 25 -25 117 -112 204 -195
87 -82 187 -177 221 -210 34 -33 131 -125 215 -205 85 -80 177 -167 205 -195
29 -27 121 -115 205 -195 84 -80 181 -172 215 -205 35 -33 105 -100 157 -150
52 -49 171 -163 264 -251 93 -89 190 -181 215 -205 41 -39 253 -240 418 -399
94 -89 371 -354 431 -410 47 -44 252 -240 420 -400 26 -25 116 -110 200 -190
271 -258 550 -524 640 -610 26 -25 117 -112 203 -194 87 -82 157 -152 157
-155 0 -4 -3051 -6 -3125 -2 -6 1 -11 22 -11 49 -2 52 -13 193 -19 232 -2 14
-6 39 -9 55 -3 17 -8 46 -11 65 -3 19 -8 42 -10 50 -2 8 -6 31 -9 50 -3 19
-13 60 -21 90 -9 30 -17 60 -19 65 -1 6 -9 30 -16 55 -8 25 -14 47 -15 50 -3
17 -40 121 -52 150 -8 19 -19 44 -23 55 -17 41 -131 271 -152 305 -12 19 -26
44 -32 55 -49 85 -181 267 -259 355 -142 160 -232 244 -420 396 -123 99 -396
254 -596 338 -176 75 -481 157 -631 171 -19 2 -35 4 -35 5 0 5 -222 24 -262
23 l-23 -1 0 1436 0 1436 31 -30 c18 -16 62 -58 99 -94z m-290 -4216 c0 -1036
3 -1304 13 -1305 6 -1 590 -2 1297 -4 707 -1 1291 -3 1298 -4 7 0 11 -5 8 -9
-3 -5 -8 -51 -11 -103 -3 -52 -7 -105 -10 -119 -3 -14 -8 -42 -10 -62 -13
-116 -90 -396 -147 -538 -58 -143 -200 -418 -228 -440 -3 -3 -19 -26 -35 -52
-17 -27 -33 -48 -37 -48 -5 0 -8 -5 -8 -11 0 -20 -165 -212 -265 -309 -142
-138 -141 -137 -255 -222 -58 -43 -110 -82 -116 -87 -5 -4 -21 -14 -35 -21
-13 -7 -26 -16 -29 -20 -24 -31 -434 -226 -502 -239 -5 -1 -25 -7 -45 -15 -99
-37 -315 -90 -416 -102 -28 -3 -63 -8 -77 -9 -131 -16 -390 -22 -500 -11 -184
18 -405 58 -480 86 -14 6 -34 11 -45 13 -11 2 -27 7 -35 10 -14 5 -89 30 -100
32 -31 8 -240 101 -310 138 -135 72 -345 208 -405 264 -11 10 -41 35 -66 55
-71 57 -217 205 -295 298 -75 91 -194 252 -194 264 0 4 -11 22 -24 39 -27 37
-126 219 -123 227 1 3 -5 17 -14 30 -45 72 -159 401 -173 500 -2 14 -11 59
-19 100 -46 226 -55 556 -22 790 12 92 19 127 41 225 14 61 26 116 27 123 0 6
4 12 9 12 5 0 6 5 3 10 -3 6 -3 16 2 23 4 6 8 17 9 23 4 24 57 169 65 179 5 5
9 14 9 21 0 6 12 38 27 70 15 33 28 61 28 64 2 12 62 123 112 205 30 50 59 99
66 110 7 11 15 22 18 25 3 3 20 28 39 55 18 28 38 55 44 60 6 6 27 30 46 55
57 74 221 246 296 310 114 97 143 120 152 120 6 0 12 4 14 9 7 19 241 164 364
225 172 86 408 173 540 200 10 3 40 9 65 15 25 6 61 12 80 15 19 2 45 7 59 10
30 7 99 15 200 22 41 3 77 8 79 10 2 2 8 1 12 -2 5 -3 9 -592 9 -1310z m280
1300 c30 -1 78 -4 105 -8 28 -4 66 -9 85 -11 40 -5 123 -20 160 -30 14 -4 34
-8 45 -10 38 -6 212 -58 275 -82 8 -3 20 -7 25 -9 54 -14 347 -154 402 -192
15 -11 59 -39 98 -63 229 -144 458 -360 641 -606 46 -61 84 -113 84 -116 0 -2
20 -34 44 -71 78 -119 231 -452 251 -546 2 -8 12 -44 23 -80 19 -61 37 -134
47 -190 3 -14 7 -36 10 -50 7 -34 16 -98 20 -140 2 -19 4 -35 5 -35 4 0 13
-166 11 -195 -1 -13 -141 -15 -1208 -13 -665 1 -1216 2 -1225 2 -17 1 -18 66
-18 1225 l0 1225 28 3 c15 2 29 1 32 -2 3 -3 30 -5 60 -6z"/>
</g>
</svg>
